<svg version="1.1" xmlns="http://www.w3.org/2000/svg" viewBox="-252.92799682617186 -2945.024160766601 5364.73642578125 3264.512185668945"><desc>Created with Snap</desc><defs><linearGradient x1="-252.92799682617186" y1="-2945.024160766601" x2="5111.808428955078" y2="-2945.024160766601" gradientUnits="userSpaceOnUse" id="linearGradientSkxi6uvhgoy"><stop offset="0%" stop-color="#0560af"></stop><stop offset="100%" stop-color="#bbe5e8"></stop></linearGradient></defs><g><rect x="-252.92799682617186" y="-2945.024160766601" width="5364.73642578125" height="3264.512185668945" fill="url('#linearGradientSkxi6uvhgoy')"></rect><g transform="matrix(5.6516,0,0,5.6516,1485.619,-2767.8115)">
<g>
	<g>
		<path fill-rule="evenodd" clip-rule="evenodd" d="M287,245l-56,32l-57,33v-41l39-23l38-22L287,245z M280,245l-29-17l-37,21l-37,21
			v34L280,245z M156,304v-34l-37-21l-37-21l-29,17L156,304z M42,226l29-17v-42v-43l-29-17V226z M53,89l29,16l37-21l37-21V29l-52,30
			L53,89z M177,29v34l37,21l37,21l29-16L177,29z M291,107l-29,17v43v42l29,17V107z M159,310l-56-33l-57-32l36-21l39,22l38,23V310z
			 M39,232v-65v-66l36,21v45v44L39,232z M46,89l57-33l56-33v42l-38,22l-39,22L46,89z M174,23l57,33l56,33l-36,20l-38-22l-39-22V23z
			 M295,101v66v65l-36-21v-44v-45L295,101z" fill="#292930" style=""></path>
		<path d="M242,219l-34,19l0,0l-34,20v-8l30-18l0,0l31-17L242,219z M159,258l-34-20l-33-19l6-4l31,17l30,18V258z M84,206v-39l0,0
			v-39l7,4v35l0,0v35L84,206z M92,115l33-20l0,0l34-19v8l-30,17l0,0l-31,18L92,115z M174,76l34,19l34,20l-7,4l-31-18l-30-17V76z
			 M249,128v39l0,0v39l-7-4v-35l0,0v-35L249,128z" fill="#292930" style=""></path>
	</g>
</g>
<desc>Created with Snap</desc><defs></defs></g><g><g transform="matrix(1.024,0,0,-1.024,0,0)"><path d="M366 -12Q216 -12 134 77Q53 166 53 322Q53 486 137 579Q222 672 374 672Q415 672 444 664Q473 657 503 645Q526 635 537 635Q555 635 561 649L564 660L591 660L601 480L574 480Q533 638 381 638Q298 638 248 589Q199 541 179 471Q159 401 159 331Q159 250 182 179Q205 109 255 65Q305 22 381 22Q442 22 481 42Q521 63 542 92Q563 122 580 161L605 148Q581 82 527 35Q474 -12 366 -12ZM794 562Q770 562 754 577Q739 593 739 616Q739 640 754 656Q770 672 794 672Q819 672 834 656Q849 640 849 616Q849 593 833 577Q818 562 794 562ZM686 0L686 29Q719 29 733 33Q747 37 750 47Q754 57 754 83L754 381Q754 407 748 415Q743 424 725 424L691 424L691 454L812 474L840 474L840 83Q840 57 844 46Q848 36 861 32Q875 29 908 29L908 0L686 0ZM1432 83Q1432 58 1436 47Q1440 37 1454 33Q1468 29 1501 29L1501 0L1282 0L1282 29Q1314 29 1327 32Q1340 36 1344 46Q1348 56 1348 81L1348 324Q1348 372 1325 401Q1303 431 1255 431Q1216 431 1189 412Q1162 394 1137 360L1137 81Q1137 56 1141 45Q1145 35 1158 32Q1171 29 1202 29L1202 0L983 0L983 29Q1016 29 1030 33Q1044 37 1047 47Q1051 57 1051 83L1051 381Q1051 407 1045 415Q1039 424 1022 424L988 424L988 454L1106 474L1134 474L1134 400L1135 400Q1169 440 1208 459Q1247 479 1297 479Q1432 479 1432 335L1432 83ZM2019 83Q2019 58 2023 47Q2027 37 2041 33Q2055 29 2088 29L2088 0L1869 0L1869 29Q1901 29 1914 32Q1927 36 1931 46Q1935 56 1935 81L1935 324Q1935 372 1912 401Q1890 431 1842 431Q1803 431 1776 412Q1749 394 1724 360L1724 81Q1724 56 1728 45Q1732 35 1745 32Q1758 29 1789 29L1789 0L1570 0L1570 29Q1603 29 1617 33Q1631 37 1634 47Q1638 57 1638 83L1638 381Q1638 407 1632 415Q1626 424 1609 424L1575 424L1575 454L1693 474L1721 474L1721 400L1722 400Q1756 440 1795 459Q1834 479 1884 479Q2019 479 2019 335L2019 83ZM2593 41L2600 16Q2581 4 2561 -3Q2541 -10 2509 -10Q2479 -10 2463 2Q2448 14 2445 54Q2408 22 2373 5Q2338 -11 2295 -11Q2240 -11 2205 14Q2171 40 2171 89Q2171 159 2242 211Q2313 263 2445 284L2445 342Q2445 393 2424 418Q2404 443 2354 443Q2319 443 2291 430Q2263 417 2263 404Q2263 397 2272 389Q2282 382 2287 374Q2293 367 2293 352Q2293 331 2281 318Q2269 306 2247 306Q2224 306 2210 320Q2197 334 2197 359Q2197 390 2217 417Q2238 444 2279 461Q2321 478 2381 478Q2457 478 2493 447Q2529 416 2529 339L2529 102Q2529 63 2537 48Q2546 34 2565 34Q2577 34 2593 41ZM2261 113Q2261 78 2281 60Q2301 43 2339 43Q2367 43 2392 55Q2418 67 2445 87L2445 252Q2352 232 2306 198Q2261 165 2261 113ZM2661 0L2661 29Q2699 29 2714 33Q2730 37 2734 48Q2738 60 2738 89L2738 571Q2738 599 2733 610Q2729 622 2713 626Q2698 631 2661 631L2661 660L2912 660Q3025 660 3089 623Q3154 586 3154 508Q3154 452 3119 413Q3085 374 3023 360L3023 359Q3096 346 3140 299Q3184 253 3184 178Q3184 0 2929 0L2661 0ZM2830 372L2904 372Q3057 372 3057 498Q3057 626 2895 626Q2866 626 2852 622Q2838 618 2834 608Q2830 599 2830 580L2830 372ZM2912 33Q2991 33 3036 68Q3081 103 3081 179Q3081 254 3036 295Q2992 337 2907 337L2830 337L2830 106Q2830 64 2847 48Q2864 33 2912 33ZM3689 239L3689 230L3371 230Q3373 137 3404 83Q3436 29 3516 29Q3574 29 3608 59Q3642 89 3658 136L3686 124Q3665 63 3621 26Q3577 -11 3490 -11Q3383 -11 3330 51Q3278 113 3278 229Q3278 348 3332 413Q3386 479 3491 479Q3689 479 3689 239ZM3371 262L3596 262Q3596 357 3573 402Q3550 448 3492 448Q3433 448 3404 401Q3375 355 3371 262ZM3765 0L3765 29Q3798 29 3812 33Q3826 37 3830 47Q3834 58 3834 83L3834 599Q3834 625 3828 633Q3822 642 3804 642L3770 642L3770 672L3891 692L3919 692L3919 83Q3919 58 3923 47Q3927 37 3941 33Q3955 29 3987 29L3987 0L3765 0ZM4046 0L4046 29Q4079 29 4093 33Q4107 37 4111 47Q4115 58 4115 83L4115 599Q4115 625 4109 633Q4103 642 4085 642L4051 642L4051 672L4172 692L4200 692L4200 83Q4200 58 4204 47Q4208 37 4222 33Q4236 29 4268 29L4268 0L4046 0ZM4524 -11Q4496 -11 4476 -6Q4457 -1 4437 7Q4414 16 4402 16Q4392 16 4386 11Q4381 7 4376 -3L4357 -3L4347 162L4367 162Q4386 92 4425 56Q4464 21 4518 21Q4562 21 4588 42Q4615 64 4615 103Q4615 131 4600 149Q4585 168 4564 179Q4543 190 4502 206L4477 215Q4416 240 4387 267Q4359 295 4359 343Q4359 406 4403 442Q4448 479 4521 479Q4545 479 4560 476Q4575 473 4594 467Q4614 461 4620 461Q4630 461 4634 465Q4638 470 4639 474Q4641 478 4641 479L4659 479L4666 332L4646 332Q4619 448 4526 448Q4485 448 4458 428Q4432 408 4432 376Q4432 344 4457 322Q4483 301 4519 288L4546 279Q4621 253 4656 221Q4692 189 4692 134Q4692 69 4645 29Q4598 -11 4524 -11Z" fill="#292929" style=""></path></g></g></g></svg>